<svg width="106.00000000000001" height="80" xmlns="http://www.w3.org/2000/svg" fill="none">

 <g>
  <title>Layer 1</title>
  <path id="svg_1" fill="#172B4D" d="m74.25008,10.29904c-6.8076,-3.2682 -14.5688,-5.106 -22.6701,-5.106c-8.1013,0 -15.8619,1.8378 -22.6695,5.1738c-2.3835,5.7189 -3.6766,12.0502 -3.6766,18.586c0,6.6037 1.2937,12.8666 3.6766,18.6533c6.8076,3.2677 14.5682,5.1738 22.6695,5.1738c8.1013,0 15.8625,-1.9061 22.6701,-5.1738c2.383,-5.7178 3.745,-12.0491 3.745,-18.6533c-0.001,-6.5358 -1.362,-12.8671 -3.745,-18.6538l0,0z" clip-rule="evenodd" fill-rule="evenodd"/>
  <path id="svg_2" fill="white" d="m72.61608,11.72894c-6.3307,-2.927 -13.5478,-4.6292 -21.0361,-4.6292c-7.4884,0 -14.7049,1.7022 -21.0362,4.6292c-2.1101,5.3788 -3.2677,11.1649 -3.2677,17.2239c0,6.0591 1.157,11.9136 3.2677,17.224c6.3313,2.9954 13.5478,4.6292 21.0362,4.6292c7.4883,0 14.7732,-1.6338 21.0361,-4.6292c2.178,-5.3104 3.336,-11.0966 3.336,-17.224c0,-6.059 -1.225,-11.8457 -3.336,-17.2239l0,0z" clip-rule="evenodd" fill-rule="evenodd"/>
  <path id="svg_3" fill="#172B4D" d="m44.22728,23.43794c-1.0892,2.2468 -1.8378,4.6975 -2.1784,7.4889c-0.0684,0 -0.613,0.0683 -0.613,0.0683c-2.3829,0.2045 -4.7653,0.4085 -7.0804,1.2932l0.1361,0.8853c3.8128,4.6975 9.599,7.5567 9.599,7.5567l-1.0892,-2.1107c-0.2723,-0.2039 -1.0892,-0.4084 -1.0892,-0.4084c-2.5869,-0.8169 -4.4252,-4.2207 -4.6975,-4.7653c2.1106,0 4.0167,0.6124 5.7867,1.2253c1.2253,0.3407 2.3829,0.7486 3.5399,0.8853c2.0423,0.3401 4.1529,0 6.1268,-0.2729c1.566,-0.2039 3.0643,-0.2039 4.5625,-0.0683c0.2034,0.2045 1.7694,2.1106 3.3354,2.9275c1.9061,0.9531 7.4206,2.6547 7.6929,2.723c0.1356,0.0684 2.2472,2.2463 3.6072,4.6975c-6.2636,2.8598 -13.2745,4.3563 -20.2872,4.3563c-7.0121,0 -14.0241,-1.4971 -20.2871,-4.3563c-2.0423,-5.3099 -3.1315,-10.8926 -3.1315,-16.611c0,-5.6506 1.0892,-11.2333 3.1315,-16.5427c6.263,-2.8597 13.275,-4.3568 20.2871,-4.3568c7.0804,0 14.0925,1.4976 20.2872,4.3568c2.043,5.3099 3.131,10.8921 3.131,16.5427c0.006,5.1707 -0.869,10.3045 -2.586,15.1817c-1.974,-3.4043 -2.7907,-4.4252 -2.7907,-4.4252c-0.0678,0 -2.7914,-1.4298 -3.4722,-2.0428c-0.5451,-0.4768 -0.8163,-1.4293 -1.1575,-2.5191c-0.4085,-1.5654 -0.952,-3.4721 -2.4502,-5.0376l1.7016,-0.6813c-0.4762,-3.1993 -4.2885,-5.2416 -4.3563,-5.2416l-0.0689,0.0684c1.4982,1.8378 1.7705,3.3354 1.7705,4.2891c0,0.4762 -0.0678,0.8163 -0.1355,0.9525c-0.4091,-0.204 -3.1999,-1.0893 -9.6674,-0.817c-0.8852,0 -2.2467,-0.0678 -3.0636,-0.8169c-0.4769,-0.4084 -0.6808,-1.0892 -0.6808,-1.8383c0,-2.2462 0.9531,-5.2421 1.0892,-5.65l1.6344,0.2039c2.0423,-1.0892 2.7908,-2.1106 2.8586,-2.2462c-1.7016,0.2045 -3.9478,0.6124 -3.9478,0.6124c0.1361,-0.3406 0.5446,-1.6338 0.5446,-3.0637c0,-1.566 -0.4763,-3.2676 -2.4507,-4.289l-0.1368,0.0683c0.0684,0.0678 1.157,1.2932 1.157,2.927c0,0.4768 -0.0677,1.0214 -0.2723,1.4977c-0.6807,-0.204 -1.0892,-0.2718 -1.8383,-0.2718c-0.4079,-1.362 -1.5649,-2.4512 -3.1309,-2.9958l-0.0684,0.0677c0,0 1.7022,1.226 1.77,2.9281c-0.8169,0.0678 -1.2931,0.204 -2.3146,0.4763c-0.4768,-0.6808 -1.4298,-1.2254 -2.7236,-1.3615l0,0.1367c0,0 1.4977,0.4762 1.77,1.6338c-0.8841,0.4085 -1.9739,1.0209 -2.5869,1.566l0.0684,0.0684c3.8122,-1.4299 7.3522,-1.77 8.2374,-0.6808c0.204,0.204 0.2723,0.4085 0.2723,0.6808c0,0.2717 -0.1367,0.6807 -0.4084,1.0892c-1.8378,0.4085 -4.697,1.157 -7.0115,2.0423l0.3401,0.953c0,0 2.3145,0.4768 3.1998,0.6814c0,0 0.3401,0.0677 0.1356,0.3395l0,0zm-42.314,46.2467c0,0 1.2316,0.4476 2.6121,0.4476c1.4926,0 2.388,-0.2229 2.9102,-0.7463c0.4107,-0.4101 0.5973,-1.1194 0.5603,-2.2008l0,-7.0154l2.2014,0l0,7.3516c-0.037,3.2458 -1.6041,4.6269 -5.2612,4.6269c-1.7912,0 -3.0228,-0.2987 -3.0228,-0.2987l0,-2.1649l0,0zm14.7016,-7.3875c3.5074,0 5.5598,1.8658 5.5598,5.0001c0,2.2389 -1.4551,4.851 -5.5598,4.851c-4.1417,0 -5.5968,-2.6121 -5.5968,-4.851c-0.0006,-3.1343 2.0888,-5.0001 5.5968,-5.0001zm3.3954,4.8886c0,-1.9028 -1.231,-2.9853 -3.3954,-2.9853c-2.1644,0 -3.4324,1.0825 -3.4324,2.9853c0,2.6485 2.1639,3.0227 3.4324,3.0227c1.2685,0 3.3954,-0.3748 3.3954,-3.0227zm10.9324,-4.6645l0,3.731l-5.6343,0l0,-3.731l-2.1638,0l0,9.4029l2.1638,0l0,-3.7691l5.6343,0l0,3.7691l2.202,0l0,-9.4029l-2.202,0zm32.7615,7.4626l0,-1.8288l4.9995,0l0,-1.9028l-4.9995,0l0,-1.8288l6.4552,0l0,-1.9022l-8.6571,0l0,9.4029l8.6571,0l0,-1.9403l-6.4552,0zm9.7769,0l0,-1.8288l5,0l0,-1.9028l-5,0l0,-1.8288l6.491,0l0,-1.9022l-8.656,0l0,9.4029l8.656,0l0,-1.9403l-6.491,0zm20.522,0l0,-1.8288l5,0l0,-1.9028l-5,0l0,-1.8288l6.492,0l0,-1.9022l-8.657,0l0,9.4029l8.657,0l0,-1.9403l-6.492,0zm-39.9258,-7.8727c2.8356,0 4.4778,1.417 4.4778,3.8794c0,3.4711 -2.7981,3.9933 -4.4778,3.9933l-3.0973,0l0,-7.8727l3.0973,0l0,0zm0,-1.9414l-5.2612,0l0,11.7544l5.2612,0c4.9255,0 6.6417,-3.1343 6.6417,-5.7834c-0.0006,-3.7321 -2.5,-5.971 -6.6417,-5.971l0,0zm34.3278,8.1724c1.679,-0.4101 2.276,-1.6798 2.276,-2.7992c0,-1.9028 -1.231,-3.0217 -3.358,-3.0217l-6.156,0l0,9.4023l2.163,0l0,-3.4329l2.575,0l2.612,3.4329l2.65,0l-2.762,-3.5814l0,0zm-5.074,-1.7913l0,-2.1274l3.993,0c0.745,0 1.194,0.4113 1.194,1.045c0,0.9334 -0.746,1.0824 -1.194,1.0824l-3.993,0zm-41.0447,5.3733l-5.6724,-6.4182l0,6.4182l-2.1633,0l0,-9.4029l2.1633,0l5.6724,6.3431l0,-6.3431l2.1639,0l0,9.4029l-2.1639,0z" clip-rule="evenodd" fill-rule="evenodd"/>
 </g>
</svg>